<mxfile host="app.diagrams.net" agent="Mozilla/5.0 (Macintosh; Intel Mac OS X 10_15_7) AppleWebKit/537.36 (KHTML, like Gecko) Chrome/129.0.0.0 Safari/537.36 " version="24.8.6">
  <diagram name="Page-1" id="2YBvvXClWsGukQMizWep">
    <mxGraphModel dx="1879" dy="539" grid="1" gridSize="10" guides="1" tooltips="1" connect="1" arrows="1" fold="1" page="1" pageScale="1" pageWidth="850" pageHeight="1100" math="0" shadow="0">
      <root>
        <mxCell id="0" />
        <mxCell id="1" parent="0" />
        <mxCell id="TEnvH3IK1kgJzA51jBi4-2" value="" style="edgeStyle=elbowEdgeStyle;rounded=0;orthogonalLoop=1;jettySize=auto;html=1;elbow=vertical;curved=0;" edge="1" parent="1" source="aM9ryv3xv72pqoxQDRHE-1" target="TEnvH3IK1kgJzA51jBi4-1">
          <mxGeometry relative="1" as="geometry" />
        </mxCell>
        <mxCell id="aM9ryv3xv72pqoxQDRHE-1" value="CareGiver signup" style="shape=umlLifeline;perimeter=lifelinePerimeter;whiteSpace=wrap;html=1;container=0;dropTarget=0;collapsible=0;recursiveResize=0;outlineConnect=0;portConstraint=eastwest;newEdgeStyle={&quot;edgeStyle&quot;:&quot;elbowEdgeStyle&quot;,&quot;elbow&quot;:&quot;vertical&quot;,&quot;curved&quot;:0,&quot;rounded&quot;:0};" parent="1" vertex="1">
          <mxGeometry x="290" y="30" width="100" height="40" as="geometry" />
        </mxCell>
        <mxCell id="TEnvH3IK1kgJzA51jBi4-1" value="Create child care center&amp;nbsp;" style="whiteSpace=wrap;html=1;" vertex="1" parent="1">
          <mxGeometry x="280" y="150" width="120" height="60" as="geometry" />
        </mxCell>
        <mxCell id="TEnvH3IK1kgJzA51jBi4-6" value="" style="edgeStyle=orthogonalEdgeStyle;rounded=0;orthogonalLoop=1;jettySize=auto;html=1;" edge="1" parent="1" source="TEnvH3IK1kgJzA51jBi4-3" target="TEnvH3IK1kgJzA51jBi4-5">
          <mxGeometry relative="1" as="geometry" />
        </mxCell>
        <mxCell id="TEnvH3IK1kgJzA51jBi4-3" value="Invite other care giver to child center" style="whiteSpace=wrap;html=1;" vertex="1" parent="1">
          <mxGeometry x="100" y="20" width="120" height="60" as="geometry" />
        </mxCell>
        <mxCell id="TEnvH3IK1kgJzA51jBi4-8" value="" style="edgeStyle=orthogonalEdgeStyle;rounded=0;orthogonalLoop=1;jettySize=auto;html=1;" edge="1" parent="1" source="TEnvH3IK1kgJzA51jBi4-5" target="TEnvH3IK1kgJzA51jBi4-7">
          <mxGeometry relative="1" as="geometry" />
        </mxCell>
        <mxCell id="TEnvH3IK1kgJzA51jBi4-12" value="" style="edgeStyle=orthogonalEdgeStyle;rounded=0;orthogonalLoop=1;jettySize=auto;html=1;" edge="1" parent="1" source="TEnvH3IK1kgJzA51jBi4-5" target="TEnvH3IK1kgJzA51jBi4-11">
          <mxGeometry relative="1" as="geometry" />
        </mxCell>
        <mxCell id="TEnvH3IK1kgJzA51jBi4-5" value="Mail send with token" style="whiteSpace=wrap;html=1;" vertex="1" parent="1">
          <mxGeometry x="-100" y="20" width="120" height="60" as="geometry" />
        </mxCell>
        <mxCell id="TEnvH3IK1kgJzA51jBi4-10" value="" style="edgeStyle=orthogonalEdgeStyle;rounded=0;orthogonalLoop=1;jettySize=auto;html=1;" edge="1" parent="1" source="TEnvH3IK1kgJzA51jBi4-7" target="TEnvH3IK1kgJzA51jBi4-9">
          <mxGeometry relative="1" as="geometry" />
        </mxCell>
        <mxCell id="TEnvH3IK1kgJzA51jBi4-7" value="Care giver does&#39;t have account" style="whiteSpace=wrap;html=1;" vertex="1" parent="1">
          <mxGeometry x="-100" y="140" width="120" height="60" as="geometry" />
        </mxCell>
        <mxCell id="TEnvH3IK1kgJzA51jBi4-15" style="edgeStyle=orthogonalEdgeStyle;rounded=0;orthogonalLoop=1;jettySize=auto;html=1;exitX=0.5;exitY=1;exitDx=0;exitDy=0;entryX=1;entryY=0.5;entryDx=0;entryDy=0;" edge="1" parent="1" source="TEnvH3IK1kgJzA51jBi4-9" target="TEnvH3IK1kgJzA51jBi4-13">
          <mxGeometry relative="1" as="geometry" />
        </mxCell>
        <mxCell id="TEnvH3IK1kgJzA51jBi4-9" value="Create account" style="whiteSpace=wrap;html=1;" vertex="1" parent="1">
          <mxGeometry x="-100" y="240" width="120" height="60" as="geometry" />
        </mxCell>
        <mxCell id="TEnvH3IK1kgJzA51jBi4-14" value="" style="edgeStyle=orthogonalEdgeStyle;rounded=0;orthogonalLoop=1;jettySize=auto;html=1;" edge="1" parent="1" source="TEnvH3IK1kgJzA51jBi4-11" target="TEnvH3IK1kgJzA51jBi4-13">
          <mxGeometry relative="1" as="geometry" />
        </mxCell>
        <mxCell id="TEnvH3IK1kgJzA51jBi4-11" value="Care giver have account" style="whiteSpace=wrap;html=1;" vertex="1" parent="1">
          <mxGeometry x="-250" y="140" width="120" height="60" as="geometry" />
        </mxCell>
        <mxCell id="TEnvH3IK1kgJzA51jBi4-13" value="Associate to child care center" style="whiteSpace=wrap;html=1;" vertex="1" parent="1">
          <mxGeometry x="-220" y="360" width="120" height="60" as="geometry" />
        </mxCell>
      </root>
    </mxGraphModel>
  </diagram>
</mxfile>
